<svg width="16" height="16" viewBox="0 0 16 16" xmlns="http://www.w3.org/2000/svg">
<path fill-rule="evenodd" clip-rule="evenodd" d="M2 0C0.895431 0 0 0.895431 0 2V14C0 15.1046 0.895431 16 2 16H14C15.1046 16 16 15.1046 16 14V2C16 0.895431 15.1046 0 14 0H2ZM4.15215 12.0599C3.69215 12.0599 3.27548 11.9833 2.90215 11.8299C2.53548 11.6766 2.24215 11.4266 2.02215 11.0799C1.80882 10.7333 1.70215 10.2733 1.70215 9.69994V7.04994C1.70215 6.47661 1.80882 6.01661 2.02215 5.66994C2.24215 5.32327 2.53548 5.07327 2.90215 4.91994C3.26882 4.76661 3.66882 4.68994 4.10215 4.68994C4.58215 4.68994 5.00882 4.76994 5.38215 4.92994C5.76215 5.08327 6.06215 5.30661 6.28215 5.59994C6.50215 5.89327 6.61215 6.25327 6.61215 6.67994C6.61215 6.97994 6.54882 7.17994 6.42215 7.27994C6.29548 7.37327 6.09881 7.41994 5.83215 7.41994C5.62548 7.41994 5.44548 7.38661 5.29215 7.31994C5.13882 7.25327 5.05882 7.12994 5.05215 6.94994C5.05215 6.82994 5.03548 6.69994 5.00215 6.55994C4.97548 6.41994 4.89882 6.29994 4.77215 6.19994C4.65215 6.09994 4.44882 6.04994 4.16215 6.04994C3.87548 6.04994 3.65215 6.13327 3.49215 6.29994C3.33882 6.45994 3.26215 6.70994 3.26215 7.04994V9.69994C3.26215 10.0399 3.33882 10.2933 3.49215 10.4599C3.65215 10.6199 3.87215 10.6999 4.15215 10.6999C4.43215 10.6999 4.65215 10.6199 4.81215 10.4599C4.97215 10.2933 5.05215 10.0399 5.05215 9.69994V9.35994H4.46215C4.31548 9.35994 4.19881 9.29994 4.11215 9.17994C4.03215 9.05327 3.99215 8.91327 3.99215 8.75994C3.99215 8.61327 4.03215 8.47661 4.11215 8.34994C4.19881 8.22327 4.31548 8.15994 4.46215 8.15994H6.14215C6.29548 8.15994 6.41215 8.20994 6.49215 8.30994C6.57215 8.40327 6.61215 8.51661 6.61215 8.64994V9.69994C6.61215 10.2733 6.50215 10.7333 6.28215 11.0799C6.06882 11.4266 5.77548 11.6766 5.40215 11.8299C5.02882 11.9833 4.61215 12.0599 4.15215 12.0599ZM8.29457 11.9999C8.10124 11.9999 7.92124 11.9599 7.75457 11.8799C7.59457 11.7999 7.51457 11.6799 7.51457 11.5199V5.15994C7.51457 4.99327 7.59457 4.87327 7.75457 4.79994C7.92124 4.72661 8.10124 4.68994 8.29457 4.68994C8.4879 4.68994 8.66457 4.72661 8.82457 4.79994C8.99124 4.87327 9.07457 4.99327 9.07457 5.15994V11.5199C9.07457 11.6799 8.99124 11.7999 8.82457 11.8799C8.66457 11.9599 8.4879 11.9999 8.29457 11.9999ZM10.3913 11.8799C10.558 11.9599 10.738 11.9999 10.9313 11.9999C11.1246 11.9999 11.3013 11.9599 11.4613 11.8799C11.628 11.7999 11.7113 11.6799 11.7113 11.5199V8.93994H13.2213C13.388 8.93994 13.508 8.87661 13.5813 8.74994C13.6546 8.61661 13.6913 8.48327 13.6913 8.34994C13.6913 8.18994 13.6513 8.04994 13.5713 7.92994C13.4913 7.80327 13.3746 7.73994 13.2213 7.73994H11.7113V6.04994H14.3013C14.4546 6.04994 14.5713 5.98327 14.6513 5.84994C14.7313 5.70994 14.7713 5.54661 14.7713 5.35994C14.7713 5.19994 14.7346 5.04994 14.6613 4.90994C14.588 4.76327 14.468 4.68994 14.3013 4.68994H10.8313C10.6646 4.68994 10.508 4.72994 10.3613 4.80994C10.2213 4.88994 10.1513 5.00994 10.1513 5.16994V11.5199C10.1513 11.6799 10.2313 11.7999 10.3913 11.8799Z" />
</svg>
