<svg width="114" height="36" viewBox="0 0 114 36" fill="none" xmlns="http://www.w3.org/2000/svg">
<path fill-rule="evenodd" clip-rule="evenodd" d="M18 36C27.9411 36 36 27.9411 36 18C36 8.05887 27.9411 0 18 0C8.05887 0 0 8.05887 0 18C0 27.9411 8.05887 36 18 36ZM26.5 9.50002H9.50002V26.5H26.5V9.50002Z" fill="white"/>
<path d="M60.168 15.204H63.816C63.704 14.212 63.432 13.332 63 12.564C62.568 11.796 62.016 11.156 61.344 10.644C60.688 10.116 59.936 9.71601 59.088 9.44401C58.256 9.17201 57.368 9.03601 56.424 9.03601C55.112 9.03601 53.928 9.26801 52.872 9.73201C51.832 10.196 50.952 10.836 50.232 11.652C49.512 12.468 48.96 13.428 48.576 14.532C48.192 15.62 48 16.804 48 18.084C48 19.332 48.192 20.5 48.576 21.588C48.96 22.66 49.512 23.596 50.232 24.396C50.952 25.196 51.832 25.828 52.872 26.292C53.928 26.74 55.112 26.964 56.424 26.964C57.48 26.964 58.448 26.804 59.328 26.484C60.208 26.164 60.976 25.7 61.632 25.092C62.288 24.484 62.816 23.748 63.216 22.884C63.616 22.02 63.864 21.052 63.96 19.98H60.312C60.168 21.132 59.768 22.06 59.112 22.764C58.472 23.468 57.576 23.82 56.424 23.82C55.576 23.82 54.856 23.66 54.264 23.34C53.672 23.004 53.192 22.564 52.824 22.02C52.456 21.476 52.184 20.868 52.008 20.196C51.848 19.508 51.768 18.804 51.768 18.084C51.768 17.332 51.848 16.604 52.008 15.9C52.184 15.196 52.456 14.572 52.824 14.028C53.192 13.468 53.672 13.028 54.264 12.708C54.856 12.372 55.576 12.204 56.424 12.204C56.888 12.204 57.328 12.284 57.744 12.444C58.176 12.588 58.56 12.796 58.896 13.068C59.232 13.34 59.512 13.66 59.736 14.028C59.96 14.38 60.104 14.772 60.168 15.204Z" fill="white"/>
<path d="M69.6771 12.252V9.44401H66.2691V12.252H69.6771ZM66.2691 14.172V26.58H69.6771V14.172H66.2691Z" fill="white"/>
<path d="M72.3606 14.172V26.58H75.7686V20.988C75.7686 20.428 75.8246 19.908 75.9366 19.428C76.0486 18.948 76.2326 18.532 76.4886 18.18C76.7606 17.812 77.1126 17.524 77.5446 17.316C77.9766 17.108 78.5046 17.004 79.1286 17.004C79.3366 17.004 79.5526 17.02 79.7766 17.052C80.0006 17.068 80.1926 17.092 80.3526 17.124V13.956C80.0806 13.876 79.8326 13.836 79.6086 13.836C79.1766 13.836 78.7606 13.9 78.3606 14.028C77.9606 14.156 77.5846 14.34 77.2326 14.58C76.8806 14.804 76.5686 15.084 76.2966 15.42C76.0246 15.74 75.8086 16.092 75.6486 16.476H75.6006V14.172H72.3606Z" fill="white"/>
<path d="M89.7148 18.54H93.0508C93.0028 17.74 92.8108 17.052 92.4748 16.476C92.1388 15.884 91.6988 15.396 91.1548 15.012C90.6268 14.612 90.0188 14.316 89.3308 14.124C88.6588 13.932 87.9548 13.836 87.2188 13.836C86.2108 13.836 85.3148 14.004 84.5308 14.34C83.7468 14.676 83.0828 15.148 82.5388 15.756C81.9948 16.348 81.5788 17.06 81.2908 17.892C81.0188 18.708 80.8828 19.596 80.8828 20.556C80.8828 21.484 81.0348 22.34 81.3388 23.124C81.6428 23.892 82.0668 24.556 82.6108 25.116C83.1548 25.676 83.8108 26.116 84.5788 26.436C85.3628 26.74 86.2188 26.892 87.1468 26.892C88.7948 26.892 90.1468 26.46 91.2028 25.596C92.2588 24.732 92.8988 23.476 93.1228 21.828H89.8348C89.7228 22.596 89.4428 23.212 88.9948 23.676C88.5628 24.124 87.9388 24.348 87.1228 24.348C86.5948 24.348 86.1468 24.228 85.7788 23.988C85.4108 23.748 85.1148 23.444 84.8908 23.076C84.6828 22.692 84.5308 22.268 84.4348 21.804C84.3388 21.34 84.2908 20.884 84.2908 20.436C84.2908 19.972 84.3388 19.508 84.4348 19.044C84.5308 18.564 84.6908 18.132 84.9148 17.748C85.1548 17.348 85.4588 17.028 85.8268 16.788C86.1948 16.532 86.6508 16.404 87.1948 16.404C88.6508 16.404 89.4908 17.116 89.7148 18.54Z" fill="white"/>
<path d="M95.1441 9.44401V26.58H98.5521V9.44401H95.1441Z" fill="white"/>
<path d="M109.588 19.044H104.044C104.06 18.804 104.108 18.532 104.188 18.228C104.284 17.924 104.436 17.636 104.644 17.364C104.868 17.092 105.156 16.868 105.508 16.692C105.876 16.5 106.332 16.404 106.876 16.404C107.708 16.404 108.324 16.628 108.724 17.076C109.14 17.524 109.428 18.18 109.588 19.044ZM104.044 21.204H112.996C113.06 20.244 112.98 19.324 112.756 18.444C112.532 17.564 112.164 16.78 111.652 16.092C111.156 15.404 110.516 14.86 109.732 14.46C108.948 14.044 108.028 13.836 106.972 13.836C106.028 13.836 105.164 14.004 104.38 14.34C103.612 14.676 102.948 15.14 102.388 15.732C101.828 16.308 101.396 16.996 101.092 17.796C100.788 18.596 100.636 19.46 100.636 20.388C100.636 21.348 100.78 22.228 101.068 23.028C101.372 23.828 101.796 24.516 102.34 25.092C102.884 25.668 103.548 26.116 104.332 26.436C105.116 26.74 105.996 26.892 106.972 26.892C108.38 26.892 109.58 26.572 110.572 25.932C111.564 25.292 112.3 24.228 112.78 22.74H109.78C109.668 23.124 109.364 23.492 108.868 23.844C108.372 24.18 107.78 24.348 107.092 24.348C106.132 24.348 105.396 24.1 104.884 23.604C104.372 23.108 104.092 22.308 104.044 21.204Z" fill="white"/>
</svg>
