<svg width="13" height="13" viewBox="0 0 13 13" xmlns="http://www.w3.org/2000/svg">
<path fill-rule="evenodd" clip-rule="evenodd" d="M7.19239 2.94972C8.36396 4.1213 8.36396 6.02079 7.19239 7.19237C6.02082 8.36394 4.12132 8.36394 2.94975 7.19237C1.77817 6.02079 1.77817 4.1213 2.94975 2.94972C4.12132 1.77815 6.02082 1.77815 7.19239 2.94972ZM9.24298 7.82875C10.5292 5.88738 10.3171 3.24597 8.6066 1.53551C6.65398 -0.41711 3.48816 -0.417111 1.53553 1.53551C-0.417088 3.48813 -0.417088 6.65396 1.53553 8.60658C3.246 10.317 5.8874 10.5292 7.82877 9.24296L10.7279 12.1421C11.1184 12.5326 11.7516 12.5326 12.1421 12.1421C12.5327 11.7516 12.5327 11.1184 12.1421 10.7279L9.24298 7.82875Z"/>
</svg>
