<svg width="14" height="16" viewBox="0 0 14 16" xmlns="http://www.w3.org/2000/svg">
<path d="M1.35231 11.0033C0.819027 12.4872 0.483916 13.5298 0.346973 14.1311C-0.0834031 16.0208 -0.396339 16.4464 1.20773 15.5484C2.81179 14.6503 10.5773 10.2015 12.3098 9.21281C14.5683 7.92401 14.5985 8.0247 12.1887 6.6563C10.3533 5.61408 2.67883 1.28133 1.20773 0.430596C-0.263375 -0.420138 -0.0834031 -0.0418341 0.346973 1.84789C0.485691 2.45698 0.825667 3.50887 1.3669 5.00357C1.74545 6.04897 2.62596 6.81614 3.69074 7.02829L8.17422 7.92155C8.21634 7.93022 8.24366 7.97236 8.23523 8.01569C8.22907 8.04736 8.20501 8.07211 8.17422 8.07845L3.68063 8.97086C2.6124 9.183 1.72952 9.9537 1.35231 11.0033Z" />
</svg>
