<svg width="16" height="16" viewBox="0 0 16 16"  xmlns="http://www.w3.org/2000/svg">
<path d="M7.98838 0C3.57706 0 0 3.58848 0 7.9998C0 12.4111 3.57706 15.9996 7.98838 15.9996C12.4111 15.9996 15.9996 12.4111 15.9996 7.9998C15.9996 3.58848 12.4111 0 7.98838 0ZM4.57132 4.57132C5.19987 4.57132 5.71415 5.08559 5.71415 5.71415C5.71415 6.3427 5.19987 6.85698 4.57132 6.85698C3.94276 6.85698 3.42849 6.3427 3.42849 5.71415C3.42849 5.08559 3.94276 4.57132 4.57132 4.57132ZM7.9998 12.5711C5.87414 12.5711 4.10276 11.1083 3.58848 9.14263H12.4111C11.8969 11.1083 10.1255 12.5711 7.9998 12.5711ZM11.4283 6.85698C10.7997 6.85698 10.2855 6.3427 10.2855 5.71415C10.2855 5.08559 10.7997 4.57132 11.4283 4.57132C12.0568 4.57132 12.5711 5.08559 12.5711 5.71415C12.5711 6.3427 12.0568 6.85698 11.4283 6.85698Z" />
</svg>
