<svg width="16" height="11" viewBox="0 0 16 11" xmlns="http://www.w3.org/2000/svg">
<path d="M2.59021 1.91188C4.45618 0.556349 6.18494 0.620848 6.18494 0.620848L6.32455 0.758192C4.04133 1.30188 3.00667 2.32063 3.00667 2.32063C3.11157 2.29825 7.72237 -0.35737 13.3082 2.38766C13.3082 2.38766 12.2711 1.43594 10.1283 0.825223L10.3179 0.639848C10.6141 0.639848 12.1815 0.695286 13.8586 1.9201C13.8586 1.9201 15.7359 5.12194 15.7359 9.05538C15.6737 8.9801 14.5713 10.7486 11.7344 10.8098C11.7344 10.8098 11.2542 10.267 10.9119 9.79279C12.5713 9.31775 13.1919 8.36607 13.1919 8.36607C9.9628 10.3969 7.13162 10.0791 3.74514 8.70785C3.71362 8.70785 3.69912 8.69379 3.68296 8.67725V8.67147C3.66681 8.65575 3.65227 8.64088 3.62079 8.64088H3.56024C3.35202 8.50435 3.21317 8.43732 3.21317 8.43732C3.21317 8.43732 3.83379 9.38904 5.42693 9.86404C5.00807 10.3407 4.59402 10.8828 4.59402 10.8828C1.75797 10.8158 0.724121 9.04722 0.724121 9.04722C0.724121 5.108 2.59009 1.91194 2.59009 1.91194L2.59021 1.91188ZM10.5399 7.82654C11.2646 7.82654 11.8538 7.21663 11.8538 6.46438C11.8538 5.71791 11.2671 5.10716 10.5407 5.10716V5.11044C9.81423 5.11654 9.22756 5.72182 9.22756 6.4676C9.22756 6.46879 9.22756 6.46994 9.22756 6.47113V6.47094C9.22756 7.2166 9.81673 7.82647 10.5407 7.82647L10.5399 7.82654ZM5.84034 7.82654C6.56348 7.82654 7.15347 7.21663 7.15347 6.46438C7.15347 5.71791 6.56754 5.10716 5.8444 5.10716L5.84037 5.11044C5.11641 5.11044 4.52725 5.71872 4.52725 6.47094C4.52725 7.2166 5.11641 7.82647 5.84037 7.82647L5.84034 7.82654Z" />
</svg>
