<svg width="16" height="13" viewBox="0 0 16 13" xmlns="http://www.w3.org/2000/svg">
<path d="M16.0001 1.5375C15.4126 1.8 14.7782 1.975 14.1157 2.05312C14.7938 1.64687 15.3126 1.00312 15.5594 0.2375C14.9251 0.6125 14.2219 0.8875 13.4751 1.03437C12.8751 0.396875 12.0219 0 11.0782 0C9.2657 0 7.79695 1.46875 7.79695 3.28125C7.79695 3.5375 7.82507 3.7875 7.88132 4.02812C5.1532 3.89062 2.73445 2.58437 1.1157 0.596875C0.834448 1.08125 0.671948 1.64687 0.671948 2.24687C0.671948 3.38437 1.25007 4.39062 2.13132 4.97813C1.59382 4.9625 1.08757 4.8125 0.643823 4.56875C0.643823 4.58125 0.643823 4.59688 0.643823 4.60938C0.643823 6.2 1.77507 7.52812 3.2782 7.82812C3.0032 7.90312 2.71257 7.94375 2.41257 7.94375C2.20007 7.94375 1.99695 7.92187 1.79382 7.88437C2.21257 9.1875 3.42507 10.1375 4.85945 10.1656C3.73445 11.0469 2.32195 11.5719 0.781323 11.5719C0.515698 11.5719 0.256323 11.5562 -0.00305176 11.525C1.4532 12.4594 3.1782 13 5.03132 13C11.0688 13 14.3719 7.99688 14.3719 3.65938C14.3719 3.51563 14.3688 3.375 14.3626 3.23438C15.0032 2.775 15.5594 2.19687 16.0001 1.5375Z" />
</svg>
