<svg width="16" height="12" viewBox="0 0 16 12" xmlns="http://www.w3.org/2000/svg">
<path d="M15.8405 2.79995C15.8405 2.79995 15.6843 1.69683 15.203 1.21245C14.5937 0.574951 13.9124 0.571826 13.5999 0.534326C11.3624 0.371826 8.00305 0.371826 8.00305 0.371826H7.9968C7.9968 0.371826 4.63743 0.371826 2.39993 0.534326C2.08743 0.571826 1.40618 0.574951 0.796802 1.21245C0.315552 1.69683 0.162427 2.79995 0.162427 2.79995C0.162427 2.79995 0.00305176 4.0937 0.00305176 5.39058V6.60308C0.00305176 7.89683 0.162427 9.1937 0.162427 9.1937C0.162427 9.1937 0.318677 10.2968 0.796802 10.7812C1.40618 11.4187 2.20618 11.3968 2.56243 11.4656C3.84368 11.5875 8.00305 11.625 8.00305 11.625C8.00305 11.625 11.3655 11.6187 13.603 11.4593C13.9155 11.4218 14.5968 11.4187 15.2062 10.7812C15.6874 10.2968 15.8437 9.1937 15.8437 9.1937C15.8437 9.1937 16.003 7.89995 16.003 6.60308V5.39058C15.9999 4.09683 15.8405 2.79995 15.8405 2.79995ZM6.3468 8.07495V3.57808L10.6687 5.83433L6.3468 8.07495Z" />
</svg>
